<?xml version="1.0" encoding="UTF-8"?>
<svg width="80mm" height="80mm" version="1.1" viewBox="0 0 80 80" xmlns="http://www.w3.org/2000/svg">
 <!-- (c) 1heal - AGPL v3 - logo rotation 7-->
 <style>
    .color-coeur { fill: #f00; }
    .color-branche1 { fill: #30baed; }
    .color-branche2 { fill: #a6f31f; }
    .color-text { fill: #fff; }
 </style>
 <path id="1coeur" class="color-coeur" d="m44.8 0.112c-8.09-0.995-15.5 4.76-16.4 12.9l-1.29 10.5-10.5-1.29c-8.09-0.995-15.5 4.76-16.4 12.9-0.995 8.09 4.76 15.5 12.9 16.4l39.8 4.89 4.89-39.8c0.995-8.09-4.76-15.5-12.9-16.4z"/>
 <path id="1branch" class="color-branche1" d="m66.8 28.2-9.97-1.23-3.6 29.3 9.97 1.23c8.09 0.995 15.5-4.76 16.4-12.9 0.996-8.09-4.76-15.5-12.9-16.4z"/>
 <path id="2branch" class="color-branche2" d="m23.4 53.2-1.23 9.97c-0.995 8.09 4.76 15.5 12.9 16.4 8.09 0.996 15.5-4.76 16.4-12.9l1.23-9.97-29.3-3.6z"/>
 <path id="logotext" class="color-text" transform="rotate(7)" d="m17.2 39.2v-4.8q0-0.728-0.248-1.33-0.248-0.612-0.686-1.05-0.438-0.446-1.05-0.686-0.612-0.248-1.34-0.248-0.645 0-1.27 0.232-0.62 0.223-1.09 0.645v-3.59q0-0.546-0.372-0.91-0.372-0.372-0.918-0.372-0.273 0-0.513 0.0992-0.232 0.0992-0.413 0.281-0.174 0.174-0.289 0.413-0.107 0.232-0.107 0.504v11.9h2.61v-5.54q0-0.645 0.446-1.08 0.446-0.438 1.09-0.438 0.322 0 0.595 0.132 0.281 0.124 0.496 0.339 0.215 0.207 0.331 0.488t0.116 0.595v4.37q0 0.521 0.364 0.926 0.364 0.397 0.91 0.397 0.562 0 0.951-0.38t0.389-0.943zm9.6-3.8q0-0.876-0.356-1.66-0.356-0.794-0.951-1.38-0.587-0.595-1.39-0.943-0.794-0.347-1.65-0.347-0.984 0-1.83 0.364-0.835 0.364-1.46 0.992-0.612 0.628-0.959 1.47t-0.347 1.83q0 1.07 0.372 1.93t1.03 1.48 1.55 0.959q0.893 0.331 1.93 0.331 0.645 0 1.22-0.107 0.587-0.107 1.17-0.347l-0.356-2q-0.455 0.0992-0.918 0.198-0.463 0.091-0.926 0.091-0.86 0-1.49-0.488t-0.81-1.31h4.94q0.595 0 0.901-0.207 0.314-0.215 0.314-0.86zm-2.71-0.405h-3.45q0.0496-0.372 0.174-0.719 0.132-0.347 0.339-0.62 0.215-0.273 0.529-0.43t0.736-0.157q0.389 0 0.695 0.174 0.306 0.165 0.513 0.438 0.215 0.265 0.339 0.612t0.149 0.703zm12.7 5.32v-8q0-0.438-0.232-0.761t-0.686-0.356q-0.273-0.0331-0.579 0.0083-0.298 0.0413-0.637 0.265-0.339 0.207-0.438 0.438l-0.091 0.24t-0.306-0.157q-0.306-0.165-0.785-0.314-0.48-0.157-1.1-0.232-0.62-0.0744-1.23 0.0744-0.678 0.19-1.21 0.604-0.521 0.413-0.885 0.984-0.364 0.562-0.562 1.26-0.19 0.695-0.19 1.41 0 0.934 0.298 1.78 0.298 0.835 0.843 1.48 0.554 0.637 1.34 1.02 0.794 0.38 1.75 0.38 0.728 0 1.34-0.298 0.612-0.306 1-0.951l-0.0083 0.141q-0.0083 0.149-0.0083 0.331 0 0.19 0.0083 0.38 0.0083 0.182 0.0083 0.281zm-2.51-4.62q0 0.455-0.091 0.91-0.091 0.446-0.322 0.81-0.223 0.364-0.587 0.595-0.364 0.223-0.893 0.223-0.504 0-0.86-0.215-0.356-0.223-0.587-0.579-0.232-0.356-0.339-0.794-0.107-0.446-0.107-0.885 0-0.422 0.107-0.86 0.107-0.446 0.347-0.802t0.604-0.571q0.364-0.223 0.868-0.223t0.86 0.215q0.364 0.207 0.579 0.546 0.223 0.339 0.322 0.769 0.0992 0.422 0.0992 0.86zm6.29 4.59v-11.9q0-0.521-0.372-0.91-0.372-0.397-0.91-0.397-0.546 0-0.934 0.38-0.389 0.372-0.389 0.926v12zm7.09-8q0-0.356-0.157-0.562-0.149-0.215-0.389-0.339-0.232-0.132-0.521-0.174-0.289-0.0413-0.554-0.0413v-1.39q0-0.546-0.38-0.951t-0.926-0.405-0.926 0.405q-0.38 0.397-0.38 0.934v1.42q-0.273 0-0.554 0.0413-0.273 0.0413-0.504 0.165-0.223 0.116-0.38 0.331-0.149 0.207-0.149 0.546t0.149 0.554q0.157 0.207 0.389 0.331 0.24 0.116 0.521 0.165 0.281 0.0496 0.546 0.0496v6.91h2.6v-6.9q0.273 0 0.554-0.0413 0.289-0.0413 0.521-0.165 0.24-0.124 0.389-0.339 0.157-0.215 0.157-0.554zm9.47 6.88v-4.8q0-0.728-0.248-1.33-0.248-0.612-0.686-1.05-0.438-0.446-1.05-0.686-0.612-0.248-1.34-0.248-0.645 0-1.27 0.232-0.62 0.223-1.09 0.645v-3.59q0-0.546-0.372-0.91-0.372-0.372-0.918-0.372-0.273 0-0.513 0.0992-0.232 0.0992-0.413 0.281-0.174 0.174-0.289 0.413-0.107 0.232-0.107 0.504v11.9h2.61v-5.54q0-0.645 0.446-1.08 0.446-0.438 1.09-0.438 0.322 0 0.595 0.132 0.281 0.124 0.496 0.339 0.215 0.207 0.331 0.488t0.116 0.595v4.37q0 0.521 0.364 0.926 0.364 0.397 0.91 0.397 0.562 0 0.951-0.38t0.389-0.943z"/>
 <path id="1ai" class="color-text" d="m46.9 5.14q-0.0104 0.0827-0.0546 0.296-0.77 2.95-1.63 9.77-0.184 1.45-0.52 4.39t-0.52 4.39q-0.0815 0.645-0.643 0.578-0.562-0.067-1.62-0.16t-1.59-0.156q-0.527-0.0629-0.475-0.476 0.0439-0.347 0.99-6.06 0.453-2.77 1.13-8.09 0.048-0.38-0.122-0.401-0.408-0.0487-1.33 0.11-0.901 0.161-1.33 0.11-0.391-0.0467-0.366-0.245 0.0251-0.198 0.109-0.591 0.101-0.391 0.126-0.589 0.023-0.182 0.0349-0.55 0.0119-0.368 0.0349-0.55 0.0272-0.215 0.42-0.319 1.04-0.279 2.26-1.11 0.0573-0.0435 1.06-0.88 0.868-0.719 0.953-0.709-0.017-0.00203 1.37 0.466 0.519 0.129 1.5 0.431 0.23 0.0946 0.199 0.343z"/>
</svg>