<?xml version="1.0" encoding="UTF-8"?>
<svg width="80mm" height="80mm" version="1.1" viewBox="0 0 80 80" xmlns="http://www.w3.org/2000/svg">
 <!-- (c) 1heal - AGPL v3 - logo rotation 7-->
 <style>.color-coeur { fill: #f00; }
    .color-branche1 { fill: #30baed; }
    .color-branche2 { fill: #a6f31f; }
    .color-text { fill: #fff; }</style>
 <path id="1coeur" class="color-coeur" d="m44.8 0.112c-8.09-0.995-15.5 4.76-16.4 12.9l-1.29 10.5-10.5-1.29c-8.09-0.995-15.5 4.76-16.4 12.9-0.995 8.09 4.76 15.5 12.9 16.4l39.8 4.89 4.89-39.8c0.995-8.09-4.76-15.5-12.9-16.4z"/>
 <path id="1branch" class="color-branche1" d="m66.8 28.2-9.97-1.23-3.6 29.3 9.97 1.23c8.09 0.995 15.5-4.76 16.4-12.9 0.996-8.09-4.76-15.5-12.9-16.4z"/>
 <path id="2branch" class="color-branche2" d="m23.4 53.2-1.23 9.97c-0.995 8.09 4.76 15.5 12.9 16.4 8.09 0.996 15.5-4.76 16.4-12.9l1.23-9.97-29.3-3.6z"/>
 <path id="logotext" class="color-text" d="m30.3 44.2 0.585-4.76q0.0887-0.723-0.0841-1.35-0.172-0.638-0.553-1.13-0.38-0.496-0.959-0.809-0.577-0.321-1.3-0.409-0.64-0.0786-1.29 0.0755-0.643 0.146-1.16 0.507l0.438-3.56q0.0665-0.542-0.258-0.949-0.324-0.415-0.866-0.481-0.271-0.0333-0.521 0.0359-0.242 0.0702-0.444 0.229-0.194 0.151-0.337 0.375-0.134 0.217-0.168 0.487l-1.45 11.8 2.59 0.318 0.675-5.5q0.0786-0.64 0.574-1.02 0.496-0.38 1.14-0.302 0.32 0.0392 0.574 0.204 0.264 0.157 0.451 0.397 0.188 0.232 0.269 0.525t0.0426 0.605l-0.533 4.34q-0.0635 0.517 0.248 0.963 0.313 0.438 0.855 0.505 0.558 0.0685 0.99-0.261 0.432-0.33 0.501-0.889zm9.99-2.6q0.107-0.869-0.151-1.69-0.257-0.831-0.776-1.49-0.51-0.662-1.26-1.11-0.746-0.441-1.6-0.545-0.977-0.12-1.86 0.138-0.873 0.26-1.57 0.807-0.684 0.549-1.13 1.34-0.447 0.793-0.567 1.77-0.13 1.06 0.134 1.96 0.264 0.899 0.842 1.59 0.578 0.696 1.42 1.14 0.846 0.437 1.88 0.564 0.64 0.0786 1.22 0.0425 0.596-0.0347 1.2-0.202l-0.11-2.03q-0.464 0.043-0.935 0.0846-0.471 0.0339-0.93-0.0225-0.854-0.105-1.42-0.666-0.566-0.561-0.644-1.4l4.9 0.602q0.591 0.0725 0.92-0.0956 0.338-0.175 0.416-0.815zm-2.64-0.732-3.42-0.42q0.0946-0.363 0.26-0.692 0.173-0.328 0.412-0.574 0.247-0.245 0.577-0.362 0.331-0.118 0.75-0.0661 0.386 0.0474 0.669 0.257 0.284 0.201 0.456 0.497 0.181 0.289 0.262 0.649 0.0808 0.36 0.0622 0.716zm12 6.83 0.975-7.94q0.0534-0.435-0.138-0.784-0.191-0.349-0.638-0.437-0.267-0.0661-0.576-0.0623-0.301 0.0047-0.665 0.185-0.362 0.164-0.488 0.381l-0.12 0.227t-0.285-0.193q-0.284-0.201-0.741-0.407-0.457-0.214-1.06-0.364-0.606-0.149-1.23-0.076-0.696 0.106-1.27 0.452-0.567 0.346-0.998 0.869-0.43 0.513-0.711 1.18-0.273 0.667-0.36 1.38-0.114 0.927 0.0788 1.8 0.194 0.865 0.656 1.57 0.472 0.7 1.21 1.18 0.742 0.474 1.69 0.59 0.723 0.0887 1.37-0.132 0.645-0.229 1.11-0.822l-0.0254 0.139q-0.0264 0.147-0.0486 0.328-0.0232 0.189-0.0381 0.378-0.0139 0.182-0.026 0.28zm-1.93-4.89q-0.0554 0.452-0.201 0.892-0.145 0.432-0.418 0.765-0.266 0.334-0.655 0.519-0.388 0.177-0.914 0.113-0.5-0.0614-0.827-0.318-0.326-0.265-0.512-0.646-0.187-0.382-0.24-0.829-0.0518-0.456 0.0017-0.891 0.0514-0.419 0.211-0.841 0.161-0.43 0.442-0.754 0.282-0.324 0.669-0.493 0.388-0.177 0.889-0.116 0.5 0.0614 0.827 0.318 0.336 0.25 0.508 0.612 0.18 0.364 0.226 0.803 0.047 0.431-0.0063 0.866zm5.68 5.32 1.45-11.8q0.0635-0.517-0.258-0.949-0.321-0.439-0.855-0.505-0.542-0.0665-0.973 0.263-0.431 0.322-0.499 0.872l-1.46 11.9zm8.01-7.08q0.0434-0.353-0.0873-0.577-0.122-0.232-0.345-0.384-0.214-0.159-0.496-0.236-0.282-0.0762-0.545-0.109l0.169-1.38q0.0665-0.542-0.261-0.99-0.328-0.448-0.87-0.515-0.542-0.0665-0.968 0.289-0.426 0.348-0.491 0.881l-0.173 1.41q-0.271-0.0333-0.555-0.0265-0.276 0.0077-0.52 0.102-0.235 0.088-0.418 0.282-0.173 0.187-0.214 0.524-0.0413 0.336 0.0804 0.568 0.131 0.225 0.346 0.376 0.224 0.144 0.497 0.227 0.273 0.0835 0.536 0.116l-0.842 6.86 2.58 0.317 0.841-6.85q0.271 0.0333 0.555 0.0265 0.292-0.0058 0.537-0.1 0.253-0.0938 0.427-0.289 0.182-0.194 0.223-0.531zm8.56 7.98 0.585-4.76q0.0887-0.723-0.0841-1.35-0.172-0.638-0.553-1.13-0.38-0.496-0.959-0.809-0.577-0.321-1.3-0.409-0.64-0.0786-1.29 0.0755-0.643 0.146-1.16 0.507l0.438-3.56q0.0665-0.542-0.258-0.949-0.324-0.415-0.866-0.481-0.271-0.0333-0.521 0.0359-0.242 0.0702-0.444 0.229-0.194 0.151-0.337 0.375-0.134 0.217-0.168 0.487l-1.45 11.8 2.59 0.318 0.675-5.5q0.0786-0.64 0.574-1.02 0.496-0.38 1.14-0.302 0.32 0.0392 0.574 0.204 0.264 0.157 0.451 0.397 0.188 0.232 0.269 0.525 0.0809 0.293 0.0426 0.605l-0.533 4.34q-0.0635 0.517 0.248 0.963 0.313 0.438 0.855 0.505 0.558 0.0685 0.99-0.261 0.432-0.33 0.501-0.889z"/>
 <path id="1ai" class="color-text" d="m46.9 5.14q-0.0104 0.0827-0.0546 0.296-0.77 2.95-1.63 9.77-0.184 1.45-0.52 4.39t-0.52 4.39q-0.0815 0.645-0.643 0.578-0.562-0.067-1.62-0.16t-1.59-0.156q-0.527-0.0629-0.475-0.476 0.0439-0.347 0.99-6.06 0.453-2.77 1.13-8.09 0.048-0.38-0.122-0.401-0.408-0.0487-1.33 0.11-0.901 0.161-1.33 0.11-0.391-0.0467-0.366-0.245 0.0251-0.198 0.109-0.591 0.101-0.391 0.126-0.589 0.023-0.182 0.0349-0.55t0.0349-0.55q0.0272-0.215 0.42-0.319 1.04-0.279 2.26-1.11 0.0573-0.0435 1.06-0.88 0.868-0.719 0.953-0.709-0.017-0.00203 1.37 0.466 0.519 0.129 1.5 0.431 0.23 0.0946 0.199 0.343z"/>
</svg>
