<?xml version="1.0" encoding="UTF-8"?>
<!-- (c) 1heal - AGPL v3 rotation 7-->
<svg width="80mm" height="80mm" version="1.1" viewBox="0 0 80 80" xmlns="http://www.w3.org/2000/svg">
 <style>
    .color-coeur { fill: #f00; }
    .color-branche1 { fill: #30baed; }
    .color-branche2 { fill: #a6f31f; }
    .color-text { fill: #fff; }
 </style>
 <path id="1coeur" class="color-coeur" d="m44.8 0.112c-8.09-0.995-15.5 4.76-16.4 12.9l-1.29 10.5-10.5-1.29c-8.09-0.995-15.5 4.76-16.4 12.9-0.995 8.09 4.76 15.5 12.9 16.4l39.8 4.89 4.89-39.8c0.995-8.09-4.76-15.5-12.9-16.4z"/>
 <path id="1branch" class="color-branche1" d="m66.8 28.2-9.97-1.23-3.6 29.3 9.97 1.23c8.09 0.995 15.5-4.76 16.4-12.9 0.996-8.09-4.76-15.5-12.9-16.4z"/>
 <path id="2branch" class="color-branche2" d="m23.4 53.2-1.23 9.97c-0.995 8.09 4.76 15.5 12.9 16.4 8.09 0.996 15.5-4.76 16.4-12.9l1.23-9.97-29.3-3.6z"/>
 <path id="logotext" class="color-text" d="m24.4 46.2-0.577-14.2c-0.0221-0.641-0.242-1.17-0.661-1.59-0.412-0.42-0.919-0.667-1.52-0.741-0.569-0.0699-1.09 0.0346-1.55 0.313-0.451 0.28-0.792 0.675-1.02 1.18l-3.67 8.52-1.5-9.15c-0.0988-0.563-0.334-1.03-0.705-1.4-0.37-0.381-0.846-0.608-1.43-0.679-0.629-0.0772-1.18 0.0398-1.66 0.351-0.495 0.309-0.833 0.771-1.02 1.39l-3.55 11.7c-0.0235 0.071-0.0397 0.143-0.0486 0.216l-0.0256 0.208c-0.0609 0.496 0.0591 0.914 0.36 1.25 0.299 0.352 0.677 0.557 1.13 0.613 0.457 0.0561 0.871-0.0375 1.24-0.281 0.373-0.25 0.623-0.588 0.749-1.02l2.6-9.66 1.76 10.3 3.18 0.39 4.2-9.56 0.248 11.1zm2.55 0.335 7.65 1.05 0.355-2.9-5.96-0.731 0.414-3.37 3.67 0.451c0.43 0.0528 0.812-0.0481 1.15-0.303 0.334-0.255 0.54-0.599 0.62-1.03 0.0528-0.43-0.0514-0.812-0.313-1.15-0.148-0.166-0.319-0.304-0.513-0.416-0.187-0.117-0.4-0.19-0.638-0.219l-3.67-0.451 0.414-3.37 4.07 0.5c0.43 0.0528 0.813-0.0547 1.15-0.323 0.348-0.266 0.549-0.611 0.601-1.03 0.0528-0.43-0.0514-0.812-0.313-1.15-0.26-0.348-0.604-0.548-1.03-0.601l-3.47-0.427c-0.0437-0.0053-0.282-0.0346-0.715-0.0878-0.417-0.0512-0.88-0.108-1.39-0.171-0.51-0.0626-0.972-0.123-1.39-0.182-0.423-0.0593-0.657-0.0918-0.703-0.0974l-1.71 13.9c-0.0292 0.238-0.0151 0.478 0.0425 0.721 0.0658 0.23 0.165 0.437 0.297 0.621 0.139 0.178 0.308 0.337 0.506 0.475 0.206 0.126 0.438 0.205 0.696 0.237zm23.7-4.96c0.0366-0.298 0.0618-0.594 0.0757-0.887s0.0104-0.593-0.0106-0.898c-0.0899-1.02-0.315-1.92-0.676-2.7-0.372-0.852-0.887-1.59-1.54-2.2-0.597-0.611-1.34-1.11-2.24-1.48-0.826-0.384-1.77-0.64-2.83-0.77-0.285-0.0349-0.682-0.0837-1.19-0.146-0.523-0.0642-1.05-0.129-1.59-0.195l-1.69-0.207c-0.523-0.0642-0.919-0.12-1.19-0.168l-1.71 13.9c-0.0626 0.51 0.0633 0.962 0.378 1.36 0.314 0.395 0.724 0.616 1.23 0.665l4.17 0.512c1.19 0.146 2.28 0.0678 3.25-0.235 0.978-0.31 1.87-0.771 2.69-1.38 0.751-0.647 1.39-1.44 1.9-2.39 0.486-0.948 0.798-1.98 0.936-3.11zm-7.54-5.86c0.728 0.0894 1.34 0.296 1.84 0.619 0.531 0.327 0.949 0.748 1.26 1.26 0.349 0.493 0.589 1.06 0.718 1.7 0.139 0.615 0.168 1.26 0.0861 1.92-0.0812 0.662-0.262 1.31-0.542 1.95-0.267 0.585-0.616 1.08-1.05 1.48s-0.94 0.711-1.52 0.921c-0.588 0.196-1.23 0.252-1.93 0.165l-2.08-0.256 1.22-9.93z"/>
 <path id="1ai" class="color-text" d="m69.7 52.4-3.46-14.5q-0.242-0.987-0.81-1.61-0.568-0.624-1.62-0.743-0.983-0.121-1.76 0.368-0.715 0.487-1.15 1.27l-5.93 11.4q-0.114 0.208-0.195 0.44-0.0826 0.222-0.114 0.48-0.0914 0.744 0.38 1.26 0.466 0.551 1.23 0.645 0.318 0.039 0.583-0.0695 0.264-0.0986 0.477-0.274 0.157-0.0472 0.41-0.383 0.262-0.331 0.514-0.743 0.262-0.411 0.472-0.808 0.23-0.395 0.314-0.586l6.45 0.792 0.69 3.41zm-4.99-6.15-4.37-0.536 2.99-6.28zm10.2-12.8q-0.516-0.0634-0.928 0.259-0.412 0.322-0.476 0.838-0.0658 0.536 0.275 0.961 0.341 0.425 0.848 0.477 0.516 0.0634 0.919-0.26 0.412-0.322 0.479-0.868 0.0634-0.516-0.279-0.931-0.322-0.412-0.838-0.476zm-0.552 20.1 1.83-14.9q0.089-0.725-0.368-1.35-0.452-0.589-1.23-0.684-0.725-0.089-1.35 0.358-0.599 0.45-0.694 1.22l-1.83 14.9z"/>
</svg>