<?xml version="1.0" encoding="UTF-8"?>
<!-- (c) 1heal - AGPL v3 rotation 7-->
<svg width="80mm" height="80mm" version="1.1" viewBox="0 0 80 80" xmlns="http://www.w3.org/2000/svg">
 <style>
    .color-coeur { fill: #f00; }
    .color-branche1 { fill: #30baed; }
    .color-branche2 { fill: #a6f31f; }
    .color-text { fill: #fff; }
 </style>
 <path class="color-coeur" d="m44.6 0.103c-8.09-0.955-15.4 4.84-16.4 12.9l-1.24 10.5-10.5-1.24c-8.09-0.955-15.4 4.84-16.4 12.9-0.955 8.09 4.84 15.4 12.9 16.4l39.8 4.69 4.69-39.8c0.955-8.1-4.84-15.4-12.9-16.4z" style="fill:#f00;stroke-width:.746"/>
 <path class="color-branche2" d="m51.7 66.6 1.2-9.97-29.3-3.53-1.2 9.97c-0.977 8.09 4.8 15.4 12.9 16.4 8.09 0.977 15.4-4.8 16.4-12.9z"/>
 <path class="color-branche1" d="m66.7 28.3-9.97-1.23-3.61 29.3 9.97 1.23c8.09 0.999 15.5-4.75 16.5-12.8 0.999-8.09-4.75-15.5-12.8-16.5z"/>
 <path class="color-text" d="m17.9 39.2q0.112-0.911-0.232-1.57-0.334-0.666-0.927-1.15-0.582-0.488-1.32-0.853-0.73-0.365-1.41-0.673-0.23-0.095-0.497-0.227-0.259-0.132-0.488-0.302-0.22-0.177-0.359-0.403-0.13-0.233-0.0923-0.536 0.0312-0.254 0.177-0.428 0.155-0.18 0.361-0.297 0.215-0.124 0.453-0.161 0.246-0.0365 0.468-0.0093 0.402 0.0494 0.75 0.2 0.348 0.151 0.669 0.324 0.321 0.164 0.619 0.318 0.299 0.144 0.594 0.181 0.467 0.0574 0.821-0.249 0.362-0.305 0.418-0.765 0.0635-0.517-0.278-0.926-0.333-0.408-0.849-0.688-0.506-0.287-1.08-0.449-0.571-0.17-0.973-0.219-0.788-0.0968-1.62 0.0432-0.816 0.134-1.51 0.531-0.69 0.39-1.16 1.03-0.478 0.633-0.584 1.5-0.122 0.993 0.24 1.64 0.369 0.654 0.992 1.11 0.627 0.46 1.37 0.793 0.751 0.326 1.41 0.681 0.156 0.0857 0.388 0.231 0.233 0.136 0.428 0.311 0.204 0.167 0.337 0.375 0.142 0.201 0.115 0.414-0.0413 0.336-0.232 0.604-0.183 0.269-0.462 0.443-0.27 0.166-0.605 0.242-0.333 0.067-0.653 0.0276-0.542-0.0665-1.05-0.287-0.505-0.228-1.03-0.501-0.158-0.0693-0.402-0.191-0.243-0.122-0.495-0.244-0.251-0.131-0.47-0.241-0.21-0.117-0.302-0.179l-0.00201 0.0164q-0.0369 0.0288-0.0459 0.102-0.0429 0.078-0.111 0.228-0.0592 0.143-0.102 0.221-0.0489 0.127-0.153 0.364-0.104 0.237-0.219 0.498-0.106 0.254-0.21 0.491-0.104 0.237-0.137 0.366 0.377 0.255 0.942 0.532 0.575 0.27 1.2 0.522 0.62 0.242 1.22 0.425 0.594 0.181 1.03 0.234 1.12 0.138 2.16-0.176 1.04-0.314 1.84-1.12 0.429-0.439 0.704-0.982 0.284-0.548 0.361-1.17zm11.3 4.9-2.59-10.8q-0.184-0.739-0.619-1.2-0.435-0.461-1.22-0.558-0.738-0.0907-1.28 0.284-0.537 0.367-0.87 0.981l-4.48 8.5q-0.0858 0.156-0.148 0.331-0.0622 0.168-0.0854 0.356-0.0685 0.558 0.281 0.967 0.35 0.41 0.892 0.476 0.238 0.0292 0.44-0.0538 0.201-0.0753 0.359-0.206 0.121-0.0351 0.31-0.286 0.197-0.251 0.385-0.561 0.196-0.309 0.358-0.606 0.169-0.296 0.237-0.437l4.82 0.592 0.517 2.57zm-3.74-4.61-3.28-0.402 2.25-4.72zm14.9 5.19 1.19-9.72q0.0333-0.271-0.0526-0.523-0.076-0.259-0.234-0.462-0.15-0.21-0.39-0.348-0.232-0.145-0.503-0.179t-0.531 0.0516q-0.251 0.077-0.455 0.244-0.195 0.159-0.34 0.4-0.136 0.233-0.17 0.504l-0.795 6.47-4.49-7.89q-0.172-0.296-0.446-0.504-0.274-0.217-0.601-0.257-0.575-0.0706-1.01 0.284-0.435 0.355-0.504 0.912l-1.34 10.9 2.67 0.328 0.953-7.76 4.56 8.09q0.159 0.261 0.414 0.426 0.263 0.165 0.567 0.203 0.575 0.0706 1.01-0.259 0.434-0.339 0.502-0.897zm10.6-8.59q0.0595-0.484-0.234-0.878-0.292-0.403-0.792-0.464l-7.22-0.886-0.271 2.34 2.66 0.327-1.05 8.58q-0.0665 0.542 0.279 0.984 0.347 0.434 0.88 0.5 0.558 0.0685 0.991-0.27 0.434-0.339 0.501-0.889l1.05-8.58 1.89 0.232q0.467 0.0574 0.861-0.228 0.394-0.285 0.453-0.77z"/>
 <path class="color-text" d="m67.7 49.1-2.59-10.8q-0.184-0.739-0.619-1.2-0.435-0.461-1.22-0.558-0.738-0.0907-1.28 0.284-0.537 0.367-0.87 0.981l-4.48 8.5q-0.0858 0.156-0.148 0.331-0.0622 0.168-0.0854 0.356-0.0685 0.558 0.281 0.967 0.35 0.41 0.892 0.476 0.238 0.0292 0.44-0.0538 0.201-0.0753 0.359-0.206 0.121-0.0351 0.31-0.286 0.197-0.251 0.385-0.561 0.196-0.309 0.358-0.606 0.169-0.296 0.237-0.437l4.82 0.592 0.517 2.57zm-3.74-4.61-3.28-0.402 2.25-4.72zm7.62-9.34q-0.386-0.0474-0.699 0.197-0.313 0.245-0.361 0.631-0.0494 0.402 0.203 0.716 0.253 0.314 0.639 0.362 0.386 0.0474 0.69-0.198 0.313-0.245 0.363-0.647 0.0474-0.386-0.205-0.7-0.245-0.313-0.631-0.361zm-0.394 14.9 1.34-10.9q0.0665-0.542-0.279-0.984-0.338-0.441-0.888-0.509-0.542-0.0665-0.991 0.27-0.449 0.337-0.518 0.895l-1.34 10.9z"/>
</svg>