<?xml version="1.0" encoding="UTF-8"?>
<!-- (c) 1heal *** AGPL v3 *** rotation 7 -->
<svg width="80mm" height="80mm" version="1.1" viewBox="0 0 80 80" xmlns="http://www.w3.org/2000/svg">
 <style>
    .color-coeur { fill: #0073bd; }
    .color-branche1 { fill: #f00; }
    .color-branche2 { fill: #f00; }
    .color-text { fill: #fff; }
 </style>
 <path id="1coeur" class="color-coeur" d="m44.6 0.1c-8.1-0.955-15.4 4.84-16.4 12.9l-1.24 10.5-10.5-1.24c-8.09-0.955-15.4 4.84-16.4 12.9-0.955 8.09 4.84 15.4 12.9 16.4l39.8 4.69 4.69-39.8c0.955-8.1-4.84-15.4-12.9-16.4z"/>
 <path id="2branch" class="color-branche2" d="m51.5 66.8 1.2-9.97-29.3-3.53-1.2 9.97c-0.977 8.09 4.8 15.4 12.9 16.4 8.09 0.977 15.4-4.8 16.4-12.9z" style="fill:#f00"/>
 <path id="1branch" class="color-branche1" d="m66.9 28.3-9.97-1.23-3.61 29.3 9.97 1.23c8.09 0.999 15.5-4.75 16.5-12.8 0.999-8.09-4.75-15.5-12.8-16.5z" style="fill:#f00"/>
 <path id="logotext" class="color-text" d="m28.6 32.7q0.0444-0.361-0.07-0.698-0.102-0.346-0.337-0.608-0.222-0.272-0.535-0.444-0.3-0.181-0.662-0.226-0.581-0.0713-1.06 0.225-0.481 0.297-0.744 0.809l-4.67 9.42-2.69-11.6-3.48 0.851 3.92 14.7q0.181 0.611 0.516 1.05 0.347 0.432 1.02 0.514 0.745 0.0914 1.17-0.212 0.439-0.313 0.77-0.928l6.61-12.1q0.199-0.354 0.241-0.693zm1.21 14.9 7.75 0.952 0.386-3.14-5.96-0.732 0.416-3.38 3.7 0.455q0.646 0.0794 1.18-0.3 0.536-0.379 0.618-1.05 0.0794-0.646-0.319-1.12-0.225-0.25-0.516-0.419-0.278-0.179-0.64-0.223l-3.65-0.448 0.416-3.38 4.1 0.503q0.646 0.0794 1.16-0.324 0.527-0.402 0.607-1.05 0.0794-0.646-0.313-1.16-0.391-0.526-1.05-0.607l-3.45-0.424q-0.0657-0.0081-0.712-0.0874-0.624-0.0767-1.41-0.173-0.767-0.0941-1.41-0.184-0.634-0.089-0.7-0.097l-1.76 14.3q-0.0444 0.361 0.0454 0.717 0.102 0.346 0.301 0.626 0.211 0.271 0.509 0.474 0.31 0.194 0.693 0.241zm21.6-12.1q0.0794-0.646-0.312-1.17-0.39-0.537-1.06-0.619l-9.63-1.18-0.361 3.12 3.55 0.436-1.41 11.4q-0.0888 0.723 0.372 1.31 0.463 0.579 1.17 0.667 0.745 0.0914 1.32-0.36t0.668-1.19l1.41-11.4 2.52 0.309q0.624 0.0767 1.15-0.304 0.525-0.38 0.604-1.03z"/>
 <path id="1ai" class="color-text" d="m69.9 52-3.47-14.4q-0.246-0.986-0.826-1.6-0.58-0.616-1.63-0.745-0.986-0.121-1.71 0.379-0.716 0.49-1.16 1.31l-5.97 11.3q-0.115 0.208-0.199 0.443-0.083 0.223-0.114 0.475-0.0914 0.745 0.375 1.29 0.467 0.546 1.19 0.635 0.318 0.039 0.587-0.0725 0.268-0.101 0.478-0.275 0.161-0.0469 0.414-0.383 0.263-0.335 0.514-0.748 0.262-0.413 0.477-0.809 0.226-0.395 0.316-0.584l6.44 0.791 0.69 3.43zm-4.98-6.15-4.37-0.537 3.01-6.3zm10.2-12.5q-0.515-0.0632-0.933 0.263-0.418 0.327-0.481 0.841-0.0659 0.537 0.272 0.956 0.338 0.419 0.852 0.483 0.515 0.0632 0.922-0.265 0.418-0.327 0.484-0.863 0.0632-0.515-0.274-0.934-0.327-0.418-0.841-0.481zm-0.515 19.8 1.79-14.6q0.0888-0.723-0.372-1.31-0.45-0.589-1.18-0.679-0.723-0.0888-1.32 0.36-0.6 0.449-0.691 1.19l-1.79 14.6z"/>
</svg>